<mxfile host="app.diagrams.net" agent="Mozilla/5.0 (Windows NT 10.0; Win64; x64) AppleWebKit/537.36 (KHTML, like Gecko) Chrome/127.0.0.0 Safari/537.36" version="24.7.7">
  <diagram name="Página-1" id="h_lCu1j-dybOL1buZUS5">
    <mxGraphModel grid="1" page="1" gridSize="10" guides="1" tooltips="1" connect="1" arrows="1" fold="1" pageScale="1" pageWidth="827" pageHeight="1169" math="0" shadow="0">
      <root>
        <mxCell id="0" />
        <mxCell id="1" parent="0" />
        <mxCell id="AvlQFZVQ7szgCzw6vinH-229" style="edgeStyle=orthogonalEdgeStyle;rounded=0;orthogonalLoop=1;jettySize=auto;html=1;exitX=1;exitY=0.5;exitDx=0;exitDy=0;entryX=0;entryY=0.5;entryDx=0;entryDy=0;" edge="1" parent="1" source="AvlQFZVQ7szgCzw6vinH-1" target="AvlQFZVQ7szgCzw6vinH-2">
          <mxGeometry relative="1" as="geometry">
            <Array as="points">
              <mxPoint x="50" y="560" />
              <mxPoint x="50" y="200" />
            </Array>
          </mxGeometry>
        </mxCell>
        <mxCell id="AvlQFZVQ7szgCzw6vinH-231" style="edgeStyle=orthogonalEdgeStyle;rounded=0;orthogonalLoop=1;jettySize=auto;html=1;exitX=1;exitY=0.5;exitDx=0;exitDy=0;entryX=0;entryY=0.5;entryDx=0;entryDy=0;" edge="1" parent="1" source="AvlQFZVQ7szgCzw6vinH-1" target="AvlQFZVQ7szgCzw6vinH-7">
          <mxGeometry relative="1" as="geometry" />
        </mxCell>
        <mxCell id="AvlQFZVQ7szgCzw6vinH-232" style="edgeStyle=orthogonalEdgeStyle;rounded=0;orthogonalLoop=1;jettySize=auto;html=1;exitX=1;exitY=0.5;exitDx=0;exitDy=0;entryX=0;entryY=0.5;entryDx=0;entryDy=0;" edge="1" parent="1" source="AvlQFZVQ7szgCzw6vinH-1" target="AvlQFZVQ7szgCzw6vinH-4">
          <mxGeometry relative="1" as="geometry" />
        </mxCell>
        <mxCell id="AvlQFZVQ7szgCzw6vinH-233" style="edgeStyle=orthogonalEdgeStyle;rounded=0;orthogonalLoop=1;jettySize=auto;html=1;exitX=1;exitY=0.5;exitDx=0;exitDy=0;entryX=0;entryY=0.5;entryDx=0;entryDy=0;" edge="1" parent="1" source="AvlQFZVQ7szgCzw6vinH-1" target="AvlQFZVQ7szgCzw6vinH-9">
          <mxGeometry relative="1" as="geometry">
            <Array as="points">
              <mxPoint x="50" y="560" />
              <mxPoint x="50" y="740" />
            </Array>
          </mxGeometry>
        </mxCell>
        <mxCell id="AvlQFZVQ7szgCzw6vinH-234" style="edgeStyle=orthogonalEdgeStyle;rounded=0;orthogonalLoop=1;jettySize=auto;html=1;exitX=1;exitY=0.5;exitDx=0;exitDy=0;entryX=0;entryY=0.5;entryDx=0;entryDy=0;" edge="1" parent="1">
          <mxGeometry relative="1" as="geometry">
            <mxPoint x="8.889999999989996" y="560" as="sourcePoint" />
            <mxPoint x="144.99999999997965" y="930" as="targetPoint" />
            <Array as="points">
              <mxPoint x="78.89" y="560" />
              <mxPoint x="78.89" y="930" />
            </Array>
          </mxGeometry>
        </mxCell>
        <mxCell id="AvlQFZVQ7szgCzw6vinH-1" value="INICIO" style="ellipse;whiteSpace=wrap;html=1;aspect=fixed;" vertex="1" parent="1">
          <mxGeometry x="-80" y="520" width="80" height="80" as="geometry" />
        </mxCell>
        <mxCell id="AvlQFZVQ7szgCzw6vinH-180" style="edgeStyle=orthogonalEdgeStyle;rounded=0;orthogonalLoop=1;jettySize=auto;html=1;exitX=1;exitY=0.5;exitDx=0;exitDy=0;entryX=0;entryY=0.5;entryDx=0;entryDy=0;" edge="1" parent="1" source="AvlQFZVQ7szgCzw6vinH-4" target="AvlQFZVQ7szgCzw6vinH-5">
          <mxGeometry relative="1" as="geometry" />
        </mxCell>
        <mxCell id="AvlQFZVQ7szgCzw6vinH-4" value="Soporte" style="ellipse;whiteSpace=wrap;html=1;aspect=fixed;" vertex="1" parent="1">
          <mxGeometry x="140" y="520" width="80" height="80" as="geometry" />
        </mxCell>
        <mxCell id="AvlQFZVQ7szgCzw6vinH-177" style="edgeStyle=orthogonalEdgeStyle;rounded=0;orthogonalLoop=1;jettySize=auto;html=1;exitX=1;exitY=0.5;exitDx=0;exitDy=0;entryX=0;entryY=0.5;entryDx=0;entryDy=0;" edge="1" parent="1" source="AvlQFZVQ7szgCzw6vinH-13" target="AvlQFZVQ7szgCzw6vinH-12">
          <mxGeometry relative="1" as="geometry" />
        </mxCell>
        <mxCell id="AvlQFZVQ7szgCzw6vinH-13" value="Análisis&amp;nbsp;&lt;div&gt;de Ventas&amp;nbsp;&lt;/div&gt;" style="ellipse;whiteSpace=wrap;html=1;aspect=fixed;" vertex="1" parent="1">
          <mxGeometry x="285" y="340" width="80" height="80" as="geometry" />
        </mxCell>
        <mxCell id="AvlQFZVQ7szgCzw6vinH-20" value="" style="group" connectable="0" vertex="1" parent="1">
          <mxGeometry x="35" y="70" width="75" height="83" as="geometry" />
        </mxCell>
        <mxCell id="AvlQFZVQ7szgCzw6vinH-29" value="" style="group" connectable="0" vertex="1" parent="1">
          <mxGeometry x="410" y="67" width="75" height="83" as="geometry" />
        </mxCell>
        <mxCell id="AvlQFZVQ7szgCzw6vinH-44" value="" style="group" connectable="0" vertex="1" parent="1">
          <mxGeometry x="435" y="160" width="80" height="80" as="geometry" />
        </mxCell>
        <mxCell id="AvlQFZVQ7szgCzw6vinH-14" value="Reabaste-&lt;div&gt;cimiento&lt;/div&gt;" style="ellipse;whiteSpace=wrap;html=1;aspect=fixed;" vertex="1" parent="AvlQFZVQ7szgCzw6vinH-44">
          <mxGeometry width="80" height="80" as="geometry" />
        </mxCell>
        <mxCell id="AvlQFZVQ7szgCzw6vinH-39" value="&lt;span style=&quot;font-size: 10px;&quot;&gt;&lt;u&gt;7&lt;/u&gt;&lt;/span&gt;" style="text;html=1;align=center;verticalAlign=middle;resizable=0;points=[];autosize=1;strokeColor=none;fillColor=none;" vertex="1" parent="AvlQFZVQ7szgCzw6vinH-44">
          <mxGeometry x="25" width="30" height="30" as="geometry" />
        </mxCell>
        <mxCell id="AvlQFZVQ7szgCzw6vinH-53" value="" style="group" connectable="0" vertex="1" parent="1">
          <mxGeometry x="425" y="885" width="90" height="90" as="geometry" />
        </mxCell>
        <mxCell id="AvlQFZVQ7szgCzw6vinH-17" value="Precio Anotado&lt;div&gt;por Mes&lt;/div&gt;" style="ellipse;whiteSpace=wrap;html=1;aspect=fixed;" vertex="1" parent="AvlQFZVQ7szgCzw6vinH-53">
          <mxGeometry width="90" height="90" as="geometry" />
        </mxCell>
        <mxCell id="AvlQFZVQ7szgCzw6vinH-52" value="&lt;span style=&quot;font-size: 10px;&quot;&gt;&lt;u&gt;5&lt;/u&gt;&lt;/span&gt;" style="text;html=1;align=center;verticalAlign=middle;resizable=0;points=[];autosize=1;strokeColor=none;fillColor=none;" vertex="1" parent="AvlQFZVQ7szgCzw6vinH-53">
          <mxGeometry x="30" width="30" height="30" as="geometry" />
        </mxCell>
        <mxCell id="AvlQFZVQ7szgCzw6vinH-54" value="" style="group" connectable="0" vertex="1" parent="1">
          <mxGeometry x="280" y="890" width="80" height="80" as="geometry" />
        </mxCell>
        <mxCell id="AvlQFZVQ7szgCzw6vinH-15" value="Detalles del&lt;div&gt;Servicio&lt;/div&gt;" style="ellipse;whiteSpace=wrap;html=1;aspect=fixed;" vertex="1" parent="AvlQFZVQ7szgCzw6vinH-54">
          <mxGeometry width="80" height="80" as="geometry" />
        </mxCell>
        <mxCell id="AvlQFZVQ7szgCzw6vinH-51" value="&lt;span style=&quot;font-size: 10px;&quot;&gt;&lt;u&gt;5&lt;/u&gt;&lt;/span&gt;" style="text;html=1;align=center;verticalAlign=middle;resizable=0;points=[];autosize=1;strokeColor=none;fillColor=none;" vertex="1" parent="AvlQFZVQ7szgCzw6vinH-54">
          <mxGeometry x="25" width="30" height="30" as="geometry" />
        </mxCell>
        <mxCell id="AvlQFZVQ7szgCzw6vinH-55" value="" style="group" connectable="0" vertex="1" parent="1">
          <mxGeometry x="431.11" y="695" width="90" height="90" as="geometry" />
        </mxCell>
        <mxCell id="AvlQFZVQ7szgCzw6vinH-6" value="Certificaciones" style="ellipse;whiteSpace=wrap;html=1;aspect=fixed;" vertex="1" parent="AvlQFZVQ7szgCzw6vinH-55">
          <mxGeometry width="90" height="90" as="geometry" />
        </mxCell>
        <mxCell id="AvlQFZVQ7szgCzw6vinH-49" value="&lt;span style=&quot;font-size: 10px;&quot;&gt;&lt;u&gt;4&lt;/u&gt;&lt;/span&gt;" style="text;html=1;align=center;verticalAlign=middle;resizable=0;points=[];autosize=1;strokeColor=none;fillColor=none;" vertex="1" parent="AvlQFZVQ7szgCzw6vinH-55">
          <mxGeometry x="30" width="30" height="30" as="geometry" />
        </mxCell>
        <mxCell id="AvlQFZVQ7szgCzw6vinH-56" value="" style="group" connectable="0" vertex="1" parent="1">
          <mxGeometry x="136.11" y="890" width="80" height="80" as="geometry" />
        </mxCell>
        <mxCell id="AvlQFZVQ7szgCzw6vinH-16" value="Costo de&amp;nbsp;&lt;div&gt;Producto&lt;/div&gt;" style="ellipse;whiteSpace=wrap;html=1;aspect=fixed;" vertex="1" parent="AvlQFZVQ7szgCzw6vinH-56">
          <mxGeometry width="80" height="80" as="geometry" />
        </mxCell>
        <mxCell id="AvlQFZVQ7szgCzw6vinH-50" value="&lt;span style=&quot;font-size: 10px;&quot;&gt;&lt;u&gt;5&lt;/u&gt;&lt;/span&gt;" style="text;html=1;align=center;verticalAlign=middle;resizable=0;points=[];autosize=1;strokeColor=none;fillColor=none;" vertex="1" parent="AvlQFZVQ7szgCzw6vinH-56">
          <mxGeometry x="25" width="30" height="30" as="geometry" />
        </mxCell>
        <mxCell id="AvlQFZVQ7szgCzw6vinH-57" value="" style="group" connectable="0" vertex="1" parent="1">
          <mxGeometry x="136.11" y="700" width="80" height="80" as="geometry" />
        </mxCell>
        <mxCell id="AvlQFZVQ7szgCzw6vinH-9" value="Historial" style="ellipse;whiteSpace=wrap;html=1;aspect=fixed;" vertex="1" parent="AvlQFZVQ7szgCzw6vinH-57">
          <mxGeometry width="80" height="80" as="geometry" />
        </mxCell>
        <mxCell id="AvlQFZVQ7szgCzw6vinH-47" value="&lt;span style=&quot;font-size: 10px;&quot;&gt;&lt;u&gt;4&lt;/u&gt;&lt;/span&gt;" style="text;html=1;align=center;verticalAlign=middle;resizable=0;points=[];autosize=1;strokeColor=none;fillColor=none;" vertex="1" parent="AvlQFZVQ7szgCzw6vinH-57">
          <mxGeometry x="25" width="30" height="30" as="geometry" />
        </mxCell>
        <mxCell id="AvlQFZVQ7szgCzw6vinH-58" value="" style="group" connectable="0" vertex="1" parent="1">
          <mxGeometry x="285" y="700" width="80" height="80" as="geometry" />
        </mxCell>
        <mxCell id="AvlQFZVQ7szgCzw6vinH-228" style="edgeStyle=orthogonalEdgeStyle;rounded=0;orthogonalLoop=1;jettySize=auto;html=1;exitX=1;exitY=0.5;exitDx=0;exitDy=0;" edge="1" parent="AvlQFZVQ7szgCzw6vinH-58" source="AvlQFZVQ7szgCzw6vinH-8">
          <mxGeometry relative="1" as="geometry">
            <mxPoint x="145" y="39.588235294117794" as="targetPoint" />
          </mxGeometry>
        </mxCell>
        <mxCell id="AvlQFZVQ7szgCzw6vinH-8" value="Referencias" style="ellipse;whiteSpace=wrap;html=1;aspect=fixed;" vertex="1" parent="AvlQFZVQ7szgCzw6vinH-58">
          <mxGeometry width="80" height="80" as="geometry" />
        </mxCell>
        <mxCell id="AvlQFZVQ7szgCzw6vinH-48" value="&lt;span style=&quot;font-size: 10px;&quot;&gt;&lt;u&gt;4&lt;/u&gt;&lt;/span&gt;" style="text;html=1;align=center;verticalAlign=middle;resizable=0;points=[];autosize=1;strokeColor=none;fillColor=none;" vertex="1" parent="AvlQFZVQ7szgCzw6vinH-58">
          <mxGeometry x="25" width="30" height="30" as="geometry" />
        </mxCell>
        <mxCell id="AvlQFZVQ7szgCzw6vinH-59" value="" style="group" connectable="0" vertex="1" parent="1">
          <mxGeometry x="435" y="520" width="80" height="80" as="geometry" />
        </mxCell>
        <mxCell id="AvlQFZVQ7szgCzw6vinH-11" value="Tiempo de&amp;nbsp;&lt;div&gt;Respuestas&lt;/div&gt;" style="ellipse;whiteSpace=wrap;html=1;aspect=fixed;" vertex="1" parent="AvlQFZVQ7szgCzw6vinH-59">
          <mxGeometry width="80" height="80" as="geometry" />
        </mxCell>
        <mxCell id="AvlQFZVQ7szgCzw6vinH-46" value="&lt;span style=&quot;font-size: 10px;&quot;&gt;&lt;u&gt;3&lt;/u&gt;&lt;/span&gt;" style="text;html=1;align=center;verticalAlign=middle;resizable=0;points=[];autosize=1;strokeColor=none;fillColor=none;" vertex="1" parent="AvlQFZVQ7szgCzw6vinH-59">
          <mxGeometry x="25" width="30" height="30" as="geometry" />
        </mxCell>
        <mxCell id="AvlQFZVQ7szgCzw6vinH-60" value="" style="group" connectable="0" vertex="1" parent="1">
          <mxGeometry x="145" y="160" width="80" height="80" as="geometry" />
        </mxCell>
        <mxCell id="AvlQFZVQ7szgCzw6vinH-2" value="&lt;span style=&quot;font-size: 11px;&quot;&gt;Control de&lt;/span&gt;&lt;div&gt;&lt;span style=&quot;font-size: 11px;&quot;&gt;Stock&lt;/span&gt;&lt;/div&gt;" style="ellipse;whiteSpace=wrap;html=1;aspect=fixed;" vertex="1" parent="AvlQFZVQ7szgCzw6vinH-60">
          <mxGeometry width="80" height="80" as="geometry" />
        </mxCell>
        <mxCell id="AvlQFZVQ7szgCzw6vinH-37" value="&lt;span style=&quot;font-size: 10px;&quot;&gt;&lt;u&gt;5&lt;/u&gt;&lt;/span&gt;" style="text;html=1;align=center;verticalAlign=middle;resizable=0;points=[];autosize=1;strokeColor=none;fillColor=none;" vertex="1" parent="AvlQFZVQ7szgCzw6vinH-60">
          <mxGeometry x="25" width="30" height="30" as="geometry" />
        </mxCell>
        <mxCell id="AvlQFZVQ7szgCzw6vinH-61" value="" style="group" connectable="0" vertex="1" parent="1">
          <mxGeometry x="290" y="160" width="80" height="80" as="geometry" />
        </mxCell>
        <mxCell id="AvlQFZVQ7szgCzw6vinH-3" value="Sistemas Utilizados" style="ellipse;whiteSpace=wrap;html=1;aspect=fixed;" vertex="1" parent="AvlQFZVQ7szgCzw6vinH-61">
          <mxGeometry width="80" height="80" as="geometry" />
        </mxCell>
        <mxCell id="AvlQFZVQ7szgCzw6vinH-38" value="&lt;span style=&quot;font-size: 10px;&quot;&gt;&lt;u&gt;3&lt;/u&gt;&lt;/span&gt;" style="text;html=1;align=center;verticalAlign=middle;resizable=0;points=[];autosize=1;strokeColor=none;fillColor=none;" vertex="1" parent="AvlQFZVQ7szgCzw6vinH-61">
          <mxGeometry x="25" width="30" height="30" as="geometry" />
        </mxCell>
        <mxCell id="AvlQFZVQ7szgCzw6vinH-62" value="" style="group" connectable="0" vertex="1" parent="1">
          <mxGeometry x="145" y="340" width="80" height="80" as="geometry" />
        </mxCell>
        <mxCell id="AvlQFZVQ7szgCzw6vinH-7" value="Registro&lt;div&gt;de Ventas&lt;/div&gt;" style="ellipse;whiteSpace=wrap;html=1;aspect=fixed;" vertex="1" parent="AvlQFZVQ7szgCzw6vinH-62">
          <mxGeometry width="80" height="80" as="geometry" />
        </mxCell>
        <mxCell id="AvlQFZVQ7szgCzw6vinH-40" value="&lt;span style=&quot;font-size: 10px;&quot;&gt;&lt;u&gt;7&lt;/u&gt;&lt;/span&gt;" style="text;html=1;align=center;verticalAlign=middle;resizable=0;points=[];autosize=1;strokeColor=none;fillColor=none;" vertex="1" parent="AvlQFZVQ7szgCzw6vinH-62">
          <mxGeometry x="25" width="30" height="30" as="geometry" />
        </mxCell>
        <mxCell id="AvlQFZVQ7szgCzw6vinH-64" value="" style="group" connectable="0" vertex="1" parent="1">
          <mxGeometry x="435" y="340" width="80" height="80" as="geometry" />
        </mxCell>
        <mxCell id="AvlQFZVQ7szgCzw6vinH-12" value="Tendencias" style="ellipse;whiteSpace=wrap;html=1;aspect=fixed;" vertex="1" parent="AvlQFZVQ7szgCzw6vinH-64">
          <mxGeometry width="80" height="80" as="geometry" />
        </mxCell>
        <mxCell id="AvlQFZVQ7szgCzw6vinH-41" value="&lt;span style=&quot;font-size: 10px;&quot;&gt;&lt;u&gt;5&lt;/u&gt;&lt;/span&gt;" style="text;html=1;align=center;verticalAlign=middle;resizable=0;points=[];autosize=1;strokeColor=none;fillColor=none;" vertex="1" parent="AvlQFZVQ7szgCzw6vinH-64">
          <mxGeometry x="25" y="5" width="30" height="30" as="geometry" />
        </mxCell>
        <mxCell id="AvlQFZVQ7szgCzw6vinH-65" value="" style="group" connectable="0" vertex="1" parent="1">
          <mxGeometry x="285" y="520" width="80" height="80" as="geometry" />
        </mxCell>
        <mxCell id="AvlQFZVQ7szgCzw6vinH-5" value="Canales" style="ellipse;whiteSpace=wrap;html=1;aspect=fixed;" vertex="1" parent="AvlQFZVQ7szgCzw6vinH-65">
          <mxGeometry width="80" height="80" as="geometry" />
        </mxCell>
        <mxCell id="AvlQFZVQ7szgCzw6vinH-45" value="&lt;span style=&quot;font-size: 10px;&quot;&gt;&lt;u&gt;3&lt;/u&gt;&lt;/span&gt;" style="text;html=1;align=center;verticalAlign=middle;resizable=0;points=[];autosize=1;strokeColor=none;fillColor=none;" vertex="1" parent="AvlQFZVQ7szgCzw6vinH-65">
          <mxGeometry x="25" width="30" height="30" as="geometry" />
        </mxCell>
        <mxCell id="AvlQFZVQ7szgCzw6vinH-68" value="FIN" style="ellipse;whiteSpace=wrap;html=1;aspect=fixed;" vertex="1" parent="1">
          <mxGeometry x="650" y="520" width="80" height="80" as="geometry" />
        </mxCell>
        <mxCell id="AvlQFZVQ7szgCzw6vinH-93" value="" style="group" connectable="0" vertex="1" parent="1">
          <mxGeometry x="-190" y="520" width="90" height="80" as="geometry" />
        </mxCell>
        <mxCell id="AvlQFZVQ7szgCzw6vinH-94" value="0" style="text;html=1;align=center;verticalAlign=middle;resizable=0;points=[];autosize=1;strokeColor=none;fillColor=none;" vertex="1" parent="AvlQFZVQ7szgCzw6vinH-93">
          <mxGeometry x="50" y="10" width="30" height="30" as="geometry" />
        </mxCell>
        <mxCell id="AvlQFZVQ7szgCzw6vinH-95" value="0" style="text;html=1;align=center;verticalAlign=middle;resizable=0;points=[];autosize=1;strokeColor=none;fillColor=none;" vertex="1" parent="AvlQFZVQ7szgCzw6vinH-93">
          <mxGeometry x="50" y="40" width="30" height="30" as="geometry" />
        </mxCell>
        <mxCell id="AvlQFZVQ7szgCzw6vinH-96" value="" style="group" connectable="0" vertex="1" parent="AvlQFZVQ7szgCzw6vinH-93">
          <mxGeometry x="-10" width="90" height="80" as="geometry" />
        </mxCell>
        <mxCell id="AvlQFZVQ7szgCzw6vinH-97" value="" style="endArrow=none;html=1;rounded=0;" edge="1" parent="AvlQFZVQ7szgCzw6vinH-96">
          <mxGeometry width="50" height="50" relative="1" as="geometry">
            <mxPoint x="10" y="40" as="sourcePoint" />
            <mxPoint x="90" y="40" as="targetPoint" />
          </mxGeometry>
        </mxCell>
        <mxCell id="AvlQFZVQ7szgCzw6vinH-98" value="" style="endArrow=none;html=1;rounded=0;" edge="1" parent="AvlQFZVQ7szgCzw6vinH-96">
          <mxGeometry width="50" height="50" relative="1" as="geometry">
            <mxPoint x="50" y="80" as="sourcePoint" />
            <mxPoint x="50" as="targetPoint" />
          </mxGeometry>
        </mxCell>
        <mxCell id="AvlQFZVQ7szgCzw6vinH-99" value="0" style="text;html=1;align=center;verticalAlign=middle;resizable=0;points=[];autosize=1;strokeColor=none;fillColor=none;" vertex="1" parent="AvlQFZVQ7szgCzw6vinH-96">
          <mxGeometry x="10" y="10" width="30" height="30" as="geometry" />
        </mxCell>
        <mxCell id="AvlQFZVQ7szgCzw6vinH-100" value="0" style="text;html=1;align=center;verticalAlign=middle;resizable=0;points=[];autosize=1;strokeColor=none;fillColor=none;" vertex="1" parent="AvlQFZVQ7szgCzw6vinH-96">
          <mxGeometry x="10" y="40" width="30" height="30" as="geometry" />
        </mxCell>
        <mxCell id="AvlQFZVQ7szgCzw6vinH-134" style="edgeStyle=orthogonalEdgeStyle;rounded=0;orthogonalLoop=1;jettySize=auto;html=1;exitX=1;exitY=0.5;exitDx=0;exitDy=0;entryX=0;entryY=0.5;entryDx=0;entryDy=0;" edge="1" parent="1" source="AvlQFZVQ7szgCzw6vinH-2" target="AvlQFZVQ7szgCzw6vinH-3">
          <mxGeometry relative="1" as="geometry" />
        </mxCell>
        <mxCell id="AvlQFZVQ7szgCzw6vinH-135" style="edgeStyle=orthogonalEdgeStyle;rounded=0;orthogonalLoop=1;jettySize=auto;html=1;exitX=1;exitY=0.5;exitDx=0;exitDy=0;entryX=0;entryY=0.5;entryDx=0;entryDy=0;" edge="1" parent="1" source="AvlQFZVQ7szgCzw6vinH-3" target="AvlQFZVQ7szgCzw6vinH-14">
          <mxGeometry relative="1" as="geometry" />
        </mxCell>
        <mxCell id="AvlQFZVQ7szgCzw6vinH-136" value="" style="group" connectable="0" vertex="1" parent="1">
          <mxGeometry x="150" y="270" width="70" height="60" as="geometry" />
        </mxCell>
        <mxCell id="AvlQFZVQ7szgCzw6vinH-139" value="" style="group" connectable="0" vertex="1" parent="AvlQFZVQ7szgCzw6vinH-136">
          <mxGeometry width="62.22" height="60" as="geometry" />
        </mxCell>
        <mxCell id="AvlQFZVQ7szgCzw6vinH-140" value="" style="endArrow=none;html=1;rounded=0;" edge="1" parent="AvlQFZVQ7szgCzw6vinH-139">
          <mxGeometry width="50" height="50" relative="1" as="geometry">
            <mxPoint x="6.913333333333334" y="30" as="sourcePoint" />
            <mxPoint x="62.22" y="30" as="targetPoint" />
          </mxGeometry>
        </mxCell>
        <mxCell id="AvlQFZVQ7szgCzw6vinH-141" value="" style="endArrow=none;html=1;rounded=0;" edge="1" parent="AvlQFZVQ7szgCzw6vinH-139">
          <mxGeometry width="50" height="50" relative="1" as="geometry">
            <mxPoint x="34.56666666666666" y="60" as="sourcePoint" />
            <mxPoint x="34.56666666666666" as="targetPoint" />
          </mxGeometry>
        </mxCell>
        <mxCell id="AvlQFZVQ7szgCzw6vinH-142" value="0" style="text;html=1;align=center;verticalAlign=middle;resizable=0;points=[];autosize=1;strokeColor=none;fillColor=none;" vertex="1" parent="AvlQFZVQ7szgCzw6vinH-139">
          <mxGeometry x="6.913333333333334" y="7.5" width="30" height="30" as="geometry" />
        </mxCell>
        <mxCell id="AvlQFZVQ7szgCzw6vinH-143" value="0" style="text;html=1;align=center;verticalAlign=middle;resizable=0;points=[];autosize=1;strokeColor=none;fillColor=none;" vertex="1" parent="AvlQFZVQ7szgCzw6vinH-139">
          <mxGeometry x="6.913333333333334" y="30" width="30" height="30" as="geometry" />
        </mxCell>
        <mxCell id="AvlQFZVQ7szgCzw6vinH-137" value="7" style="text;html=1;align=center;verticalAlign=middle;resizable=0;points=[];autosize=1;strokeColor=none;fillColor=none;" vertex="1" parent="AvlQFZVQ7szgCzw6vinH-139">
          <mxGeometry x="32.218888888888884" y="7.5" width="30" height="30" as="geometry" />
        </mxCell>
        <mxCell id="AvlQFZVQ7szgCzw6vinH-138" value="7" style="text;html=1;align=center;verticalAlign=middle;resizable=0;points=[];autosize=1;strokeColor=none;fillColor=none;" vertex="1" parent="AvlQFZVQ7szgCzw6vinH-139">
          <mxGeometry x="32.218888888888884" y="30" width="30" height="30" as="geometry" />
        </mxCell>
        <mxCell id="AvlQFZVQ7szgCzw6vinH-147" value="" style="group" connectable="0" vertex="1" parent="1">
          <mxGeometry x="290" y="270" width="70" height="60" as="geometry" />
        </mxCell>
        <mxCell id="AvlQFZVQ7szgCzw6vinH-148" value="" style="group" connectable="0" vertex="1" parent="AvlQFZVQ7szgCzw6vinH-147">
          <mxGeometry width="67.21888888888888" height="60" as="geometry" />
        </mxCell>
        <mxCell id="AvlQFZVQ7szgCzw6vinH-149" value="" style="endArrow=none;html=1;rounded=0;" edge="1" parent="AvlQFZVQ7szgCzw6vinH-148">
          <mxGeometry width="50" height="50" relative="1" as="geometry">
            <mxPoint x="6.913333333333334" y="30" as="sourcePoint" />
            <mxPoint x="62.22" y="30" as="targetPoint" />
          </mxGeometry>
        </mxCell>
        <mxCell id="AvlQFZVQ7szgCzw6vinH-150" value="" style="endArrow=none;html=1;rounded=0;" edge="1" parent="AvlQFZVQ7szgCzw6vinH-148">
          <mxGeometry width="50" height="50" relative="1" as="geometry">
            <mxPoint x="34.56666666666666" y="60" as="sourcePoint" />
            <mxPoint x="34.56666666666666" as="targetPoint" />
          </mxGeometry>
        </mxCell>
        <mxCell id="AvlQFZVQ7szgCzw6vinH-151" value="7" style="text;html=1;align=center;verticalAlign=middle;resizable=0;points=[];autosize=1;strokeColor=none;fillColor=none;" vertex="1" parent="AvlQFZVQ7szgCzw6vinH-148">
          <mxGeometry x="6.913333333333334" y="7.5" width="30" height="30" as="geometry" />
        </mxCell>
        <mxCell id="AvlQFZVQ7szgCzw6vinH-152" value="7" style="text;html=1;align=center;verticalAlign=middle;resizable=0;points=[];autosize=1;strokeColor=none;fillColor=none;" vertex="1" parent="AvlQFZVQ7szgCzw6vinH-148">
          <mxGeometry x="6.913333333333334" y="30" width="30" height="30" as="geometry" />
        </mxCell>
        <mxCell id="AvlQFZVQ7szgCzw6vinH-153" value="15" style="text;html=1;align=center;verticalAlign=middle;resizable=0;points=[];autosize=1;strokeColor=none;fillColor=none;" vertex="1" parent="AvlQFZVQ7szgCzw6vinH-148">
          <mxGeometry x="27.218888888888884" y="7.5" width="40" height="30" as="geometry" />
        </mxCell>
        <mxCell id="AvlQFZVQ7szgCzw6vinH-154" value="15" style="text;html=1;align=center;verticalAlign=middle;resizable=0;points=[];autosize=1;strokeColor=none;fillColor=none;" vertex="1" parent="AvlQFZVQ7szgCzw6vinH-148">
          <mxGeometry x="27.218888888888884" y="30" width="40" height="30" as="geometry" />
        </mxCell>
        <mxCell id="AvlQFZVQ7szgCzw6vinH-155" value="" style="group" connectable="0" vertex="1" parent="1">
          <mxGeometry x="445" y="270" width="70" height="60" as="geometry" />
        </mxCell>
        <mxCell id="AvlQFZVQ7szgCzw6vinH-156" value="" style="group" connectable="0" vertex="1" parent="AvlQFZVQ7szgCzw6vinH-155">
          <mxGeometry width="67.21888888888888" height="60" as="geometry" />
        </mxCell>
        <mxCell id="AvlQFZVQ7szgCzw6vinH-157" value="" style="endArrow=none;html=1;rounded=0;" edge="1" parent="AvlQFZVQ7szgCzw6vinH-156">
          <mxGeometry width="50" height="50" relative="1" as="geometry">
            <mxPoint x="6.913333333333334" y="30" as="sourcePoint" />
            <mxPoint x="62.22" y="30" as="targetPoint" />
          </mxGeometry>
        </mxCell>
        <mxCell id="AvlQFZVQ7szgCzw6vinH-158" value="" style="endArrow=none;html=1;rounded=0;" edge="1" parent="AvlQFZVQ7szgCzw6vinH-156">
          <mxGeometry width="50" height="50" relative="1" as="geometry">
            <mxPoint x="34.56666666666666" y="60" as="sourcePoint" />
            <mxPoint x="34.56666666666666" as="targetPoint" />
          </mxGeometry>
        </mxCell>
        <mxCell id="AvlQFZVQ7szgCzw6vinH-159" value="15" style="text;html=1;align=center;verticalAlign=middle;resizable=0;points=[];autosize=1;strokeColor=none;fillColor=none;" vertex="1" parent="AvlQFZVQ7szgCzw6vinH-156">
          <mxGeometry x="1.913333333333334" y="7.5" width="40" height="30" as="geometry" />
        </mxCell>
        <mxCell id="AvlQFZVQ7szgCzw6vinH-160" value="15" style="text;html=1;align=center;verticalAlign=middle;resizable=0;points=[];autosize=1;strokeColor=none;fillColor=none;" vertex="1" parent="AvlQFZVQ7szgCzw6vinH-156">
          <mxGeometry x="1.913333333333334" y="30" width="40" height="30" as="geometry" />
        </mxCell>
        <mxCell id="AvlQFZVQ7szgCzw6vinH-161" value="20" style="text;html=1;align=center;verticalAlign=middle;resizable=0;points=[];autosize=1;strokeColor=none;fillColor=none;" vertex="1" parent="AvlQFZVQ7szgCzw6vinH-156">
          <mxGeometry x="27.218888888888884" y="7.5" width="40" height="30" as="geometry" />
        </mxCell>
        <mxCell id="AvlQFZVQ7szgCzw6vinH-162" value="20" style="text;html=1;align=center;verticalAlign=middle;resizable=0;points=[];autosize=1;strokeColor=none;fillColor=none;" vertex="1" parent="AvlQFZVQ7szgCzw6vinH-156">
          <mxGeometry x="27.218888888888884" y="30" width="40" height="30" as="geometry" />
        </mxCell>
        <mxCell id="AvlQFZVQ7szgCzw6vinH-168" value="" style="group" connectable="0" vertex="1" parent="1">
          <mxGeometry x="146.11" y="450" width="70" height="60" as="geometry" />
        </mxCell>
        <mxCell id="AvlQFZVQ7szgCzw6vinH-169" value="" style="group" connectable="0" vertex="1" parent="AvlQFZVQ7szgCzw6vinH-168">
          <mxGeometry width="67.21888888888888" height="60" as="geometry" />
        </mxCell>
        <mxCell id="AvlQFZVQ7szgCzw6vinH-170" value="" style="endArrow=none;html=1;rounded=0;" edge="1" parent="AvlQFZVQ7szgCzw6vinH-169">
          <mxGeometry width="50" height="50" relative="1" as="geometry">
            <mxPoint x="6.913333333333334" y="30" as="sourcePoint" />
            <mxPoint x="62.22" y="30" as="targetPoint" />
          </mxGeometry>
        </mxCell>
        <mxCell id="AvlQFZVQ7szgCzw6vinH-171" value="" style="endArrow=none;html=1;rounded=0;" edge="1" parent="AvlQFZVQ7szgCzw6vinH-169">
          <mxGeometry width="50" height="50" relative="1" as="geometry">
            <mxPoint x="34.56666666666666" y="60" as="sourcePoint" />
            <mxPoint x="34.56666666666666" as="targetPoint" />
          </mxGeometry>
        </mxCell>
        <mxCell id="AvlQFZVQ7szgCzw6vinH-172" value="0" style="text;html=1;align=center;verticalAlign=middle;resizable=0;points=[];autosize=1;strokeColor=none;fillColor=none;" vertex="1" parent="AvlQFZVQ7szgCzw6vinH-169">
          <mxGeometry x="6.913333333333334" y="7.5" width="30" height="30" as="geometry" />
        </mxCell>
        <mxCell id="AvlQFZVQ7szgCzw6vinH-173" value="10" style="text;html=1;align=center;verticalAlign=middle;resizable=0;points=[];autosize=1;strokeColor=none;fillColor=none;" vertex="1" parent="AvlQFZVQ7szgCzw6vinH-169">
          <mxGeometry x="1.913333333333334" y="30" width="40" height="30" as="geometry" />
        </mxCell>
        <mxCell id="AvlQFZVQ7szgCzw6vinH-174" value="4" style="text;html=1;align=center;verticalAlign=middle;resizable=0;points=[];autosize=1;strokeColor=none;fillColor=none;" vertex="1" parent="AvlQFZVQ7szgCzw6vinH-169">
          <mxGeometry x="32.218888888888884" y="7.5" width="30" height="30" as="geometry" />
        </mxCell>
        <mxCell id="AvlQFZVQ7szgCzw6vinH-175" value="14" style="text;html=1;align=center;verticalAlign=middle;resizable=0;points=[];autosize=1;strokeColor=none;fillColor=none;" vertex="1" parent="AvlQFZVQ7szgCzw6vinH-169">
          <mxGeometry x="27.218888888888884" y="30" width="40" height="30" as="geometry" />
        </mxCell>
        <mxCell id="AvlQFZVQ7szgCzw6vinH-176" style="edgeStyle=orthogonalEdgeStyle;rounded=0;orthogonalLoop=1;jettySize=auto;html=1;exitX=1;exitY=0.5;exitDx=0;exitDy=0;entryX=0;entryY=0.5;entryDx=0;entryDy=0;" edge="1" parent="1" source="AvlQFZVQ7szgCzw6vinH-7" target="AvlQFZVQ7szgCzw6vinH-13">
          <mxGeometry relative="1" as="geometry" />
        </mxCell>
        <mxCell id="AvlQFZVQ7szgCzw6vinH-181" style="edgeStyle=orthogonalEdgeStyle;rounded=0;orthogonalLoop=1;jettySize=auto;html=1;exitX=1;exitY=0.5;exitDx=0;exitDy=0;entryX=0;entryY=0.5;entryDx=0;entryDy=0;" edge="1" parent="1" source="AvlQFZVQ7szgCzw6vinH-5" target="AvlQFZVQ7szgCzw6vinH-11">
          <mxGeometry relative="1" as="geometry" />
        </mxCell>
        <mxCell id="AvlQFZVQ7szgCzw6vinH-182" style="edgeStyle=orthogonalEdgeStyle;rounded=0;orthogonalLoop=1;jettySize=auto;html=1;exitX=1;exitY=0.5;exitDx=0;exitDy=0;entryX=0;entryY=0.5;entryDx=0;entryDy=0;" edge="1" parent="1" source="AvlQFZVQ7szgCzw6vinH-9" target="AvlQFZVQ7szgCzw6vinH-8">
          <mxGeometry relative="1" as="geometry" />
        </mxCell>
        <mxCell id="AvlQFZVQ7szgCzw6vinH-184" style="edgeStyle=orthogonalEdgeStyle;rounded=0;orthogonalLoop=1;jettySize=auto;html=1;exitX=1;exitY=0.5;exitDx=0;exitDy=0;entryX=0;entryY=0.5;entryDx=0;entryDy=0;" edge="1" parent="1" source="AvlQFZVQ7szgCzw6vinH-16" target="AvlQFZVQ7szgCzw6vinH-15">
          <mxGeometry relative="1" as="geometry" />
        </mxCell>
        <mxCell id="AvlQFZVQ7szgCzw6vinH-185" style="edgeStyle=orthogonalEdgeStyle;rounded=0;orthogonalLoop=1;jettySize=auto;html=1;exitX=1;exitY=0.5;exitDx=0;exitDy=0;entryX=0;entryY=0.5;entryDx=0;entryDy=0;" edge="1" parent="1" source="AvlQFZVQ7szgCzw6vinH-15" target="AvlQFZVQ7szgCzw6vinH-17">
          <mxGeometry relative="1" as="geometry" />
        </mxCell>
        <mxCell id="AvlQFZVQ7szgCzw6vinH-187" value="" style="group" connectable="0" vertex="1" parent="1">
          <mxGeometry x="155" y="90" width="70" height="60" as="geometry" />
        </mxCell>
        <mxCell id="AvlQFZVQ7szgCzw6vinH-188" value="" style="group" connectable="0" vertex="1" parent="AvlQFZVQ7szgCzw6vinH-187">
          <mxGeometry width="67.21888888888888" height="60" as="geometry" />
        </mxCell>
        <mxCell id="AvlQFZVQ7szgCzw6vinH-189" value="" style="endArrow=none;html=1;rounded=0;" edge="1" parent="AvlQFZVQ7szgCzw6vinH-188">
          <mxGeometry width="50" height="50" relative="1" as="geometry">
            <mxPoint x="6.913333333333334" y="30" as="sourcePoint" />
            <mxPoint x="62.22" y="30" as="targetPoint" />
          </mxGeometry>
        </mxCell>
        <mxCell id="AvlQFZVQ7szgCzw6vinH-190" value="" style="endArrow=none;html=1;rounded=0;" edge="1" parent="AvlQFZVQ7szgCzw6vinH-188">
          <mxGeometry width="50" height="50" relative="1" as="geometry">
            <mxPoint x="34.56666666666666" y="60" as="sourcePoint" />
            <mxPoint x="34.56666666666666" as="targetPoint" />
          </mxGeometry>
        </mxCell>
        <mxCell id="AvlQFZVQ7szgCzw6vinH-191" value="0" style="text;html=1;align=center;verticalAlign=middle;resizable=0;points=[];autosize=1;strokeColor=none;fillColor=none;" vertex="1" parent="AvlQFZVQ7szgCzw6vinH-188">
          <mxGeometry x="6.913333333333334" y="7.5" width="30" height="30" as="geometry" />
        </mxCell>
        <mxCell id="AvlQFZVQ7szgCzw6vinH-192" value="5" style="text;html=1;align=center;verticalAlign=middle;resizable=0;points=[];autosize=1;strokeColor=none;fillColor=none;" vertex="1" parent="AvlQFZVQ7szgCzw6vinH-188">
          <mxGeometry x="6.913333333333334" y="30" width="30" height="30" as="geometry" />
        </mxCell>
        <mxCell id="AvlQFZVQ7szgCzw6vinH-193" value="5" style="text;html=1;align=center;verticalAlign=middle;resizable=0;points=[];autosize=1;strokeColor=none;fillColor=none;" vertex="1" parent="AvlQFZVQ7szgCzw6vinH-188">
          <mxGeometry x="32.218888888888884" y="7.5" width="30" height="30" as="geometry" />
        </mxCell>
        <mxCell id="AvlQFZVQ7szgCzw6vinH-194" value="10" style="text;html=1;align=center;verticalAlign=middle;resizable=0;points=[];autosize=1;strokeColor=none;fillColor=none;" vertex="1" parent="AvlQFZVQ7szgCzw6vinH-188">
          <mxGeometry x="27.218888888888884" y="30" width="40" height="30" as="geometry" />
        </mxCell>
        <mxCell id="AvlQFZVQ7szgCzw6vinH-195" value="" style="group" connectable="0" vertex="1" parent="1">
          <mxGeometry x="300" y="93" width="70" height="60" as="geometry" />
        </mxCell>
        <mxCell id="AvlQFZVQ7szgCzw6vinH-196" value="" style="group" connectable="0" vertex="1" parent="AvlQFZVQ7szgCzw6vinH-195">
          <mxGeometry width="67.21888888888888" height="60" as="geometry" />
        </mxCell>
        <mxCell id="AvlQFZVQ7szgCzw6vinH-197" value="" style="endArrow=none;html=1;rounded=0;" edge="1" parent="AvlQFZVQ7szgCzw6vinH-196">
          <mxGeometry width="50" height="50" relative="1" as="geometry">
            <mxPoint x="6.913333333333334" y="30" as="sourcePoint" />
            <mxPoint x="62.22" y="30" as="targetPoint" />
          </mxGeometry>
        </mxCell>
        <mxCell id="AvlQFZVQ7szgCzw6vinH-198" value="" style="endArrow=none;html=1;rounded=0;" edge="1" parent="AvlQFZVQ7szgCzw6vinH-196">
          <mxGeometry width="50" height="50" relative="1" as="geometry">
            <mxPoint x="34.56666666666666" y="60" as="sourcePoint" />
            <mxPoint x="34.56666666666666" as="targetPoint" />
          </mxGeometry>
        </mxCell>
        <mxCell id="AvlQFZVQ7szgCzw6vinH-199" value="5" style="text;html=1;align=center;verticalAlign=middle;resizable=0;points=[];autosize=1;strokeColor=none;fillColor=none;" vertex="1" parent="AvlQFZVQ7szgCzw6vinH-196">
          <mxGeometry x="6.913333333333334" y="7.5" width="30" height="30" as="geometry" />
        </mxCell>
        <mxCell id="AvlQFZVQ7szgCzw6vinH-200" value="10" style="text;html=1;align=center;verticalAlign=middle;resizable=0;points=[];autosize=1;strokeColor=none;fillColor=none;" vertex="1" parent="AvlQFZVQ7szgCzw6vinH-196">
          <mxGeometry x="1.913333333333334" y="30" width="40" height="30" as="geometry" />
        </mxCell>
        <mxCell id="AvlQFZVQ7szgCzw6vinH-201" value="8" style="text;html=1;align=center;verticalAlign=middle;resizable=0;points=[];autosize=1;strokeColor=none;fillColor=none;" vertex="1" parent="AvlQFZVQ7szgCzw6vinH-196">
          <mxGeometry x="32.218888888888884" y="7.5" width="30" height="30" as="geometry" />
        </mxCell>
        <mxCell id="AvlQFZVQ7szgCzw6vinH-202" value="13" style="text;html=1;align=center;verticalAlign=middle;resizable=0;points=[];autosize=1;strokeColor=none;fillColor=none;" vertex="1" parent="AvlQFZVQ7szgCzw6vinH-196">
          <mxGeometry x="27.218888888888884" y="30" width="40" height="30" as="geometry" />
        </mxCell>
        <mxCell id="AvlQFZVQ7szgCzw6vinH-203" value="" style="group" connectable="0" vertex="1" parent="1">
          <mxGeometry x="441.11" y="93" width="70" height="60" as="geometry" />
        </mxCell>
        <mxCell id="AvlQFZVQ7szgCzw6vinH-204" value="" style="group" connectable="0" vertex="1" parent="AvlQFZVQ7szgCzw6vinH-203">
          <mxGeometry width="67.21888888888888" height="60" as="geometry" />
        </mxCell>
        <mxCell id="AvlQFZVQ7szgCzw6vinH-205" value="" style="endArrow=none;html=1;rounded=0;" edge="1" parent="AvlQFZVQ7szgCzw6vinH-204">
          <mxGeometry width="50" height="50" relative="1" as="geometry">
            <mxPoint x="6.913333333333334" y="30" as="sourcePoint" />
            <mxPoint x="62.22" y="30" as="targetPoint" />
          </mxGeometry>
        </mxCell>
        <mxCell id="AvlQFZVQ7szgCzw6vinH-206" value="" style="endArrow=none;html=1;rounded=0;" edge="1" parent="AvlQFZVQ7szgCzw6vinH-204">
          <mxGeometry width="50" height="50" relative="1" as="geometry">
            <mxPoint x="34.56666666666666" y="60" as="sourcePoint" />
            <mxPoint x="34.56666666666666" as="targetPoint" />
          </mxGeometry>
        </mxCell>
        <mxCell id="AvlQFZVQ7szgCzw6vinH-207" value="8" style="text;html=1;align=center;verticalAlign=middle;resizable=0;points=[];autosize=1;strokeColor=none;fillColor=none;" vertex="1" parent="AvlQFZVQ7szgCzw6vinH-204">
          <mxGeometry x="6.913333333333334" y="7.5" width="30" height="30" as="geometry" />
        </mxCell>
        <mxCell id="AvlQFZVQ7szgCzw6vinH-208" value="13" style="text;html=1;align=center;verticalAlign=middle;resizable=0;points=[];autosize=1;strokeColor=none;fillColor=none;" vertex="1" parent="AvlQFZVQ7szgCzw6vinH-204">
          <mxGeometry x="1.913333333333334" y="30" width="40" height="30" as="geometry" />
        </mxCell>
        <mxCell id="AvlQFZVQ7szgCzw6vinH-209" value="15" style="text;html=1;align=center;verticalAlign=middle;resizable=0;points=[];autosize=1;strokeColor=none;fillColor=none;" vertex="1" parent="AvlQFZVQ7szgCzw6vinH-204">
          <mxGeometry x="27.218888888888884" y="7.5" width="40" height="30" as="geometry" />
        </mxCell>
        <mxCell id="AvlQFZVQ7szgCzw6vinH-210" value="20" style="text;html=1;align=center;verticalAlign=middle;resizable=0;points=[];autosize=1;strokeColor=none;fillColor=none;" vertex="1" parent="AvlQFZVQ7szgCzw6vinH-204">
          <mxGeometry x="27.218888888888884" y="30" width="40" height="30" as="geometry" />
        </mxCell>
        <mxCell id="AvlQFZVQ7szgCzw6vinH-211" value="" style="group" connectable="0" vertex="1" parent="1">
          <mxGeometry x="290" y="450" width="70" height="60" as="geometry" />
        </mxCell>
        <mxCell id="AvlQFZVQ7szgCzw6vinH-212" value="" style="group" connectable="0" vertex="1" parent="AvlQFZVQ7szgCzw6vinH-211">
          <mxGeometry width="67.21888888888888" height="60" as="geometry" />
        </mxCell>
        <mxCell id="AvlQFZVQ7szgCzw6vinH-213" value="" style="endArrow=none;html=1;rounded=0;" edge="1" parent="AvlQFZVQ7szgCzw6vinH-212">
          <mxGeometry width="50" height="50" relative="1" as="geometry">
            <mxPoint x="6.913333333333334" y="30" as="sourcePoint" />
            <mxPoint x="62.22" y="30" as="targetPoint" />
          </mxGeometry>
        </mxCell>
        <mxCell id="AvlQFZVQ7szgCzw6vinH-214" value="" style="endArrow=none;html=1;rounded=0;" edge="1" parent="AvlQFZVQ7szgCzw6vinH-212">
          <mxGeometry width="50" height="50" relative="1" as="geometry">
            <mxPoint x="34.56666666666666" y="60" as="sourcePoint" />
            <mxPoint x="34.56666666666666" as="targetPoint" />
          </mxGeometry>
        </mxCell>
        <mxCell id="AvlQFZVQ7szgCzw6vinH-215" value="4" style="text;html=1;align=center;verticalAlign=middle;resizable=0;points=[];autosize=1;strokeColor=none;fillColor=none;" vertex="1" parent="AvlQFZVQ7szgCzw6vinH-212">
          <mxGeometry x="6.913333333333334" y="7.5" width="30" height="30" as="geometry" />
        </mxCell>
        <mxCell id="AvlQFZVQ7szgCzw6vinH-216" value="14" style="text;html=1;align=center;verticalAlign=middle;resizable=0;points=[];autosize=1;strokeColor=none;fillColor=none;" vertex="1" parent="AvlQFZVQ7szgCzw6vinH-212">
          <mxGeometry x="1.913333333333334" y="30" width="40" height="30" as="geometry" />
        </mxCell>
        <mxCell id="AvlQFZVQ7szgCzw6vinH-217" value="7" style="text;html=1;align=center;verticalAlign=middle;resizable=0;points=[];autosize=1;strokeColor=none;fillColor=none;" vertex="1" parent="AvlQFZVQ7szgCzw6vinH-212">
          <mxGeometry x="32.218888888888884" y="7.5" width="30" height="30" as="geometry" />
        </mxCell>
        <mxCell id="AvlQFZVQ7szgCzw6vinH-218" value="17" style="text;html=1;align=center;verticalAlign=middle;resizable=0;points=[];autosize=1;strokeColor=none;fillColor=none;" vertex="1" parent="AvlQFZVQ7szgCzw6vinH-212">
          <mxGeometry x="27.218888888888884" y="30" width="40" height="30" as="geometry" />
        </mxCell>
        <mxCell id="AvlQFZVQ7szgCzw6vinH-219" value="" style="group" connectable="0" vertex="1" parent="1">
          <mxGeometry x="441.11" y="450" width="70" height="60" as="geometry" />
        </mxCell>
        <mxCell id="AvlQFZVQ7szgCzw6vinH-220" value="" style="group" connectable="0" vertex="1" parent="AvlQFZVQ7szgCzw6vinH-219">
          <mxGeometry width="67.21888888888888" height="60" as="geometry" />
        </mxCell>
        <mxCell id="AvlQFZVQ7szgCzw6vinH-221" value="" style="endArrow=none;html=1;rounded=0;" edge="1" parent="AvlQFZVQ7szgCzw6vinH-220">
          <mxGeometry width="50" height="50" relative="1" as="geometry">
            <mxPoint x="6.913333333333334" y="30" as="sourcePoint" />
            <mxPoint x="62.22" y="30" as="targetPoint" />
          </mxGeometry>
        </mxCell>
        <mxCell id="AvlQFZVQ7szgCzw6vinH-222" value="" style="endArrow=none;html=1;rounded=0;" edge="1" parent="AvlQFZVQ7szgCzw6vinH-220">
          <mxGeometry width="50" height="50" relative="1" as="geometry">
            <mxPoint x="34.56666666666666" y="60" as="sourcePoint" />
            <mxPoint x="34.56666666666666" as="targetPoint" />
          </mxGeometry>
        </mxCell>
        <mxCell id="AvlQFZVQ7szgCzw6vinH-223" value="7" style="text;html=1;align=center;verticalAlign=middle;resizable=0;points=[];autosize=1;strokeColor=none;fillColor=none;" vertex="1" parent="AvlQFZVQ7szgCzw6vinH-220">
          <mxGeometry x="6.913333333333334" y="7.5" width="30" height="30" as="geometry" />
        </mxCell>
        <mxCell id="AvlQFZVQ7szgCzw6vinH-224" value="17" style="text;html=1;align=center;verticalAlign=middle;resizable=0;points=[];autosize=1;strokeColor=none;fillColor=none;" vertex="1" parent="AvlQFZVQ7szgCzw6vinH-220">
          <mxGeometry x="1.913333333333334" y="30" width="40" height="30" as="geometry" />
        </mxCell>
        <mxCell id="AvlQFZVQ7szgCzw6vinH-225" value="10" style="text;html=1;align=center;verticalAlign=middle;resizable=0;points=[];autosize=1;strokeColor=none;fillColor=none;" vertex="1" parent="AvlQFZVQ7szgCzw6vinH-220">
          <mxGeometry x="27.218888888888884" y="7.5" width="40" height="30" as="geometry" />
        </mxCell>
        <mxCell id="AvlQFZVQ7szgCzw6vinH-226" value="20" style="text;html=1;align=center;verticalAlign=middle;resizable=0;points=[];autosize=1;strokeColor=none;fillColor=none;" vertex="1" parent="AvlQFZVQ7szgCzw6vinH-220">
          <mxGeometry x="27.218888888888884" y="30" width="40" height="30" as="geometry" />
        </mxCell>
        <mxCell id="AvlQFZVQ7szgCzw6vinH-235" value="" style="group" connectable="0" vertex="1" parent="1">
          <mxGeometry x="142.22" y="630" width="70" height="60" as="geometry" />
        </mxCell>
        <mxCell id="AvlQFZVQ7szgCzw6vinH-236" value="" style="group" connectable="0" vertex="1" parent="AvlQFZVQ7szgCzw6vinH-235">
          <mxGeometry width="67.21888888888888" height="60" as="geometry" />
        </mxCell>
        <mxCell id="AvlQFZVQ7szgCzw6vinH-237" value="" style="endArrow=none;html=1;rounded=0;" edge="1" parent="AvlQFZVQ7szgCzw6vinH-236">
          <mxGeometry width="50" height="50" relative="1" as="geometry">
            <mxPoint x="6.913333333333334" y="30" as="sourcePoint" />
            <mxPoint x="62.22" y="30" as="targetPoint" />
          </mxGeometry>
        </mxCell>
        <mxCell id="AvlQFZVQ7szgCzw6vinH-238" value="" style="endArrow=none;html=1;rounded=0;" edge="1" parent="AvlQFZVQ7szgCzw6vinH-236">
          <mxGeometry width="50" height="50" relative="1" as="geometry">
            <mxPoint x="34.56666666666666" y="60" as="sourcePoint" />
            <mxPoint x="34.56666666666666" as="targetPoint" />
          </mxGeometry>
        </mxCell>
        <mxCell id="AvlQFZVQ7szgCzw6vinH-239" value="0" style="text;html=1;align=center;verticalAlign=middle;resizable=0;points=[];autosize=1;strokeColor=none;fillColor=none;" vertex="1" parent="AvlQFZVQ7szgCzw6vinH-236">
          <mxGeometry x="6.913333333333334" y="7.5" width="30" height="30" as="geometry" />
        </mxCell>
        <mxCell id="AvlQFZVQ7szgCzw6vinH-240" value="8" style="text;html=1;align=center;verticalAlign=middle;resizable=0;points=[];autosize=1;strokeColor=none;fillColor=none;" vertex="1" parent="AvlQFZVQ7szgCzw6vinH-236">
          <mxGeometry x="6.913333333333334" y="30" width="30" height="30" as="geometry" />
        </mxCell>
        <mxCell id="AvlQFZVQ7szgCzw6vinH-241" value="4" style="text;html=1;align=center;verticalAlign=middle;resizable=0;points=[];autosize=1;strokeColor=none;fillColor=none;" vertex="1" parent="AvlQFZVQ7szgCzw6vinH-236">
          <mxGeometry x="32.218888888888884" y="7.5" width="30" height="30" as="geometry" />
        </mxCell>
        <mxCell id="AvlQFZVQ7szgCzw6vinH-242" value="12" style="text;html=1;align=center;verticalAlign=middle;resizable=0;points=[];autosize=1;strokeColor=none;fillColor=none;" vertex="1" parent="AvlQFZVQ7szgCzw6vinH-236">
          <mxGeometry x="27.218888888888884" y="30" width="40" height="30" as="geometry" />
        </mxCell>
        <mxCell id="AvlQFZVQ7szgCzw6vinH-243" value="" style="group" connectable="0" vertex="1" parent="1">
          <mxGeometry x="292.22" y="635" width="70" height="60" as="geometry" />
        </mxCell>
        <mxCell id="AvlQFZVQ7szgCzw6vinH-244" value="" style="group" connectable="0" vertex="1" parent="AvlQFZVQ7szgCzw6vinH-243">
          <mxGeometry width="67.21888888888888" height="60" as="geometry" />
        </mxCell>
        <mxCell id="AvlQFZVQ7szgCzw6vinH-245" value="" style="endArrow=none;html=1;rounded=0;" edge="1" parent="AvlQFZVQ7szgCzw6vinH-244">
          <mxGeometry width="50" height="50" relative="1" as="geometry">
            <mxPoint x="6.913333333333334" y="30" as="sourcePoint" />
            <mxPoint x="62.22" y="30" as="targetPoint" />
          </mxGeometry>
        </mxCell>
        <mxCell id="AvlQFZVQ7szgCzw6vinH-246" value="" style="endArrow=none;html=1;rounded=0;" edge="1" parent="AvlQFZVQ7szgCzw6vinH-244">
          <mxGeometry width="50" height="50" relative="1" as="geometry">
            <mxPoint x="34.56666666666666" y="60" as="sourcePoint" />
            <mxPoint x="34.56666666666666" as="targetPoint" />
          </mxGeometry>
        </mxCell>
        <mxCell id="AvlQFZVQ7szgCzw6vinH-247" value="4" style="text;html=1;align=center;verticalAlign=middle;resizable=0;points=[];autosize=1;strokeColor=none;fillColor=none;" vertex="1" parent="AvlQFZVQ7szgCzw6vinH-244">
          <mxGeometry x="6.913333333333334" y="7.5" width="30" height="30" as="geometry" />
        </mxCell>
        <mxCell id="AvlQFZVQ7szgCzw6vinH-248" value="12" style="text;html=1;align=center;verticalAlign=middle;resizable=0;points=[];autosize=1;strokeColor=none;fillColor=none;" vertex="1" parent="AvlQFZVQ7szgCzw6vinH-244">
          <mxGeometry x="1.913333333333334" y="30" width="40" height="30" as="geometry" />
        </mxCell>
        <mxCell id="AvlQFZVQ7szgCzw6vinH-249" value="8" style="text;html=1;align=center;verticalAlign=middle;resizable=0;points=[];autosize=1;strokeColor=none;fillColor=none;" vertex="1" parent="AvlQFZVQ7szgCzw6vinH-244">
          <mxGeometry x="32.218888888888884" y="7.5" width="30" height="30" as="geometry" />
        </mxCell>
        <mxCell id="AvlQFZVQ7szgCzw6vinH-250" value="16" style="text;html=1;align=center;verticalAlign=middle;resizable=0;points=[];autosize=1;strokeColor=none;fillColor=none;" vertex="1" parent="AvlQFZVQ7szgCzw6vinH-244">
          <mxGeometry x="27.218888888888884" y="30" width="40" height="30" as="geometry" />
        </mxCell>
        <mxCell id="AvlQFZVQ7szgCzw6vinH-251" value="" style="group" connectable="0" vertex="1" parent="1">
          <mxGeometry x="441.11" y="627.5" width="70" height="60" as="geometry" />
        </mxCell>
        <mxCell id="AvlQFZVQ7szgCzw6vinH-252" value="" style="group" connectable="0" vertex="1" parent="AvlQFZVQ7szgCzw6vinH-251">
          <mxGeometry width="67.21888888888888" height="60" as="geometry" />
        </mxCell>
        <mxCell id="AvlQFZVQ7szgCzw6vinH-253" value="" style="endArrow=none;html=1;rounded=0;" edge="1" parent="AvlQFZVQ7szgCzw6vinH-252">
          <mxGeometry width="50" height="50" relative="1" as="geometry">
            <mxPoint x="6.913333333333334" y="30" as="sourcePoint" />
            <mxPoint x="62.22" y="30" as="targetPoint" />
          </mxGeometry>
        </mxCell>
        <mxCell id="AvlQFZVQ7szgCzw6vinH-254" value="" style="endArrow=none;html=1;rounded=0;" edge="1" parent="AvlQFZVQ7szgCzw6vinH-252">
          <mxGeometry width="50" height="50" relative="1" as="geometry">
            <mxPoint x="34.56666666666666" y="60" as="sourcePoint" />
            <mxPoint x="34.56666666666666" as="targetPoint" />
          </mxGeometry>
        </mxCell>
        <mxCell id="AvlQFZVQ7szgCzw6vinH-255" value="8" style="text;html=1;align=center;verticalAlign=middle;resizable=0;points=[];autosize=1;strokeColor=none;fillColor=none;" vertex="1" parent="AvlQFZVQ7szgCzw6vinH-252">
          <mxGeometry x="6.913333333333334" y="7.5" width="30" height="30" as="geometry" />
        </mxCell>
        <mxCell id="AvlQFZVQ7szgCzw6vinH-256" value="16" style="text;html=1;align=center;verticalAlign=middle;resizable=0;points=[];autosize=1;strokeColor=none;fillColor=none;" vertex="1" parent="AvlQFZVQ7szgCzw6vinH-252">
          <mxGeometry x="1.913333333333334" y="30" width="40" height="30" as="geometry" />
        </mxCell>
        <mxCell id="AvlQFZVQ7szgCzw6vinH-257" value="12" style="text;html=1;align=center;verticalAlign=middle;resizable=0;points=[];autosize=1;strokeColor=none;fillColor=none;" vertex="1" parent="AvlQFZVQ7szgCzw6vinH-252">
          <mxGeometry x="27.218888888888884" y="7.5" width="40" height="30" as="geometry" />
        </mxCell>
        <mxCell id="AvlQFZVQ7szgCzw6vinH-258" value="20" style="text;html=1;align=center;verticalAlign=middle;resizable=0;points=[];autosize=1;strokeColor=none;fillColor=none;" vertex="1" parent="AvlQFZVQ7szgCzw6vinH-252">
          <mxGeometry x="27.218888888888884" y="30" width="40" height="30" as="geometry" />
        </mxCell>
        <mxCell id="AvlQFZVQ7szgCzw6vinH-259" value="" style="group" connectable="0" vertex="1" parent="1">
          <mxGeometry x="142.22" y="820" width="70" height="60" as="geometry" />
        </mxCell>
        <mxCell id="AvlQFZVQ7szgCzw6vinH-260" value="" style="group" connectable="0" vertex="1" parent="AvlQFZVQ7szgCzw6vinH-259">
          <mxGeometry width="67.21888888888888" height="60" as="geometry" />
        </mxCell>
        <mxCell id="AvlQFZVQ7szgCzw6vinH-261" value="" style="endArrow=none;html=1;rounded=0;" edge="1" parent="AvlQFZVQ7szgCzw6vinH-260">
          <mxGeometry width="50" height="50" relative="1" as="geometry">
            <mxPoint x="6.913333333333334" y="30" as="sourcePoint" />
            <mxPoint x="62.22" y="30" as="targetPoint" />
          </mxGeometry>
        </mxCell>
        <mxCell id="AvlQFZVQ7szgCzw6vinH-262" value="" style="endArrow=none;html=1;rounded=0;" edge="1" parent="AvlQFZVQ7szgCzw6vinH-260">
          <mxGeometry width="50" height="50" relative="1" as="geometry">
            <mxPoint x="34.56666666666666" y="60" as="sourcePoint" />
            <mxPoint x="34.56666666666666" as="targetPoint" />
          </mxGeometry>
        </mxCell>
        <mxCell id="AvlQFZVQ7szgCzw6vinH-263" value="0" style="text;html=1;align=center;verticalAlign=middle;resizable=0;points=[];autosize=1;strokeColor=none;fillColor=none;" vertex="1" parent="AvlQFZVQ7szgCzw6vinH-260">
          <mxGeometry x="6.913333333333334" y="7.5" width="30" height="30" as="geometry" />
        </mxCell>
        <mxCell id="AvlQFZVQ7szgCzw6vinH-264" value="5" style="text;html=1;align=center;verticalAlign=middle;resizable=0;points=[];autosize=1;strokeColor=none;fillColor=none;" vertex="1" parent="AvlQFZVQ7szgCzw6vinH-260">
          <mxGeometry x="6.913333333333334" y="30" width="30" height="30" as="geometry" />
        </mxCell>
        <mxCell id="AvlQFZVQ7szgCzw6vinH-265" value="5" style="text;html=1;align=center;verticalAlign=middle;resizable=0;points=[];autosize=1;strokeColor=none;fillColor=none;" vertex="1" parent="AvlQFZVQ7szgCzw6vinH-260">
          <mxGeometry x="32.218888888888884" y="7.5" width="30" height="30" as="geometry" />
        </mxCell>
        <mxCell id="AvlQFZVQ7szgCzw6vinH-266" value="10" style="text;html=1;align=center;verticalAlign=middle;resizable=0;points=[];autosize=1;strokeColor=none;fillColor=none;" vertex="1" parent="AvlQFZVQ7szgCzw6vinH-260">
          <mxGeometry x="27.218888888888884" y="30" width="40" height="30" as="geometry" />
        </mxCell>
        <mxCell id="AvlQFZVQ7szgCzw6vinH-267" value="" style="group" connectable="0" vertex="1" parent="1">
          <mxGeometry x="290" y="825" width="70" height="60" as="geometry" />
        </mxCell>
        <mxCell id="AvlQFZVQ7szgCzw6vinH-268" value="" style="group" connectable="0" vertex="1" parent="AvlQFZVQ7szgCzw6vinH-267">
          <mxGeometry width="67.21888888888888" height="60" as="geometry" />
        </mxCell>
        <mxCell id="AvlQFZVQ7szgCzw6vinH-269" value="" style="endArrow=none;html=1;rounded=0;" edge="1" parent="AvlQFZVQ7szgCzw6vinH-268">
          <mxGeometry width="50" height="50" relative="1" as="geometry">
            <mxPoint x="6.913333333333334" y="30" as="sourcePoint" />
            <mxPoint x="62.22" y="30" as="targetPoint" />
          </mxGeometry>
        </mxCell>
        <mxCell id="AvlQFZVQ7szgCzw6vinH-270" value="" style="endArrow=none;html=1;rounded=0;" edge="1" parent="AvlQFZVQ7szgCzw6vinH-268">
          <mxGeometry width="50" height="50" relative="1" as="geometry">
            <mxPoint x="34.56666666666666" y="60" as="sourcePoint" />
            <mxPoint x="34.56666666666666" as="targetPoint" />
          </mxGeometry>
        </mxCell>
        <mxCell id="AvlQFZVQ7szgCzw6vinH-271" value="5" style="text;html=1;align=center;verticalAlign=middle;resizable=0;points=[];autosize=1;strokeColor=none;fillColor=none;" vertex="1" parent="AvlQFZVQ7szgCzw6vinH-268">
          <mxGeometry x="6.913333333333334" y="7.5" width="30" height="30" as="geometry" />
        </mxCell>
        <mxCell id="AvlQFZVQ7szgCzw6vinH-272" value="10" style="text;html=1;align=center;verticalAlign=middle;resizable=0;points=[];autosize=1;strokeColor=none;fillColor=none;" vertex="1" parent="AvlQFZVQ7szgCzw6vinH-268">
          <mxGeometry x="1.913333333333334" y="30" width="40" height="30" as="geometry" />
        </mxCell>
        <mxCell id="AvlQFZVQ7szgCzw6vinH-273" value="10" style="text;html=1;align=center;verticalAlign=middle;resizable=0;points=[];autosize=1;strokeColor=none;fillColor=none;" vertex="1" parent="AvlQFZVQ7szgCzw6vinH-268">
          <mxGeometry x="27.218888888888884" y="7.5" width="40" height="30" as="geometry" />
        </mxCell>
        <mxCell id="AvlQFZVQ7szgCzw6vinH-274" value="15" style="text;html=1;align=center;verticalAlign=middle;resizable=0;points=[];autosize=1;strokeColor=none;fillColor=none;" vertex="1" parent="AvlQFZVQ7szgCzw6vinH-268">
          <mxGeometry x="27.218888888888884" y="30" width="40" height="30" as="geometry" />
        </mxCell>
        <mxCell id="AvlQFZVQ7szgCzw6vinH-275" value="" style="group" connectable="0" vertex="1" parent="1">
          <mxGeometry x="435" y="820" width="70" height="60" as="geometry" />
        </mxCell>
        <mxCell id="AvlQFZVQ7szgCzw6vinH-276" value="" style="group" connectable="0" vertex="1" parent="AvlQFZVQ7szgCzw6vinH-275">
          <mxGeometry width="67.21888888888888" height="60" as="geometry" />
        </mxCell>
        <mxCell id="AvlQFZVQ7szgCzw6vinH-277" value="" style="endArrow=none;html=1;rounded=0;" edge="1" parent="AvlQFZVQ7szgCzw6vinH-276">
          <mxGeometry width="50" height="50" relative="1" as="geometry">
            <mxPoint x="6.913333333333334" y="30" as="sourcePoint" />
            <mxPoint x="62.22" y="30" as="targetPoint" />
          </mxGeometry>
        </mxCell>
        <mxCell id="AvlQFZVQ7szgCzw6vinH-278" value="" style="endArrow=none;html=1;rounded=0;" edge="1" parent="AvlQFZVQ7szgCzw6vinH-276">
          <mxGeometry width="50" height="50" relative="1" as="geometry">
            <mxPoint x="34.56666666666666" y="60" as="sourcePoint" />
            <mxPoint x="34.56666666666666" as="targetPoint" />
          </mxGeometry>
        </mxCell>
        <mxCell id="AvlQFZVQ7szgCzw6vinH-279" value="10" style="text;html=1;align=center;verticalAlign=middle;resizable=0;points=[];autosize=1;strokeColor=none;fillColor=none;" vertex="1" parent="AvlQFZVQ7szgCzw6vinH-276">
          <mxGeometry x="1.913333333333334" y="7.5" width="40" height="30" as="geometry" />
        </mxCell>
        <mxCell id="AvlQFZVQ7szgCzw6vinH-280" value="15" style="text;html=1;align=center;verticalAlign=middle;resizable=0;points=[];autosize=1;strokeColor=none;fillColor=none;" vertex="1" parent="AvlQFZVQ7szgCzw6vinH-276">
          <mxGeometry x="1.913333333333334" y="30" width="40" height="30" as="geometry" />
        </mxCell>
        <mxCell id="AvlQFZVQ7szgCzw6vinH-281" value="15" style="text;html=1;align=center;verticalAlign=middle;resizable=0;points=[];autosize=1;strokeColor=none;fillColor=none;" vertex="1" parent="AvlQFZVQ7szgCzw6vinH-276">
          <mxGeometry x="27.218888888888884" y="7.5" width="40" height="30" as="geometry" />
        </mxCell>
        <mxCell id="AvlQFZVQ7szgCzw6vinH-282" value="20" style="text;html=1;align=center;verticalAlign=middle;resizable=0;points=[];autosize=1;strokeColor=none;fillColor=none;" vertex="1" parent="AvlQFZVQ7szgCzw6vinH-276">
          <mxGeometry x="27.218888888888884" y="30" width="40" height="30" as="geometry" />
        </mxCell>
        <mxCell id="AvlQFZVQ7szgCzw6vinH-283" value="" style="group" connectable="0" vertex="1" parent="1">
          <mxGeometry x="760" y="520" width="90" height="80" as="geometry" />
        </mxCell>
        <mxCell id="AvlQFZVQ7szgCzw6vinH-284" value="20" style="text;html=1;align=center;verticalAlign=middle;resizable=0;points=[];autosize=1;strokeColor=none;fillColor=none;" vertex="1" parent="AvlQFZVQ7szgCzw6vinH-283">
          <mxGeometry x="45" y="10" width="40" height="30" as="geometry" />
        </mxCell>
        <mxCell id="AvlQFZVQ7szgCzw6vinH-285" value="20" style="text;html=1;align=center;verticalAlign=middle;resizable=0;points=[];autosize=1;strokeColor=none;fillColor=none;" vertex="1" parent="AvlQFZVQ7szgCzw6vinH-283">
          <mxGeometry x="45" y="40" width="40" height="30" as="geometry" />
        </mxCell>
        <mxCell id="AvlQFZVQ7szgCzw6vinH-286" value="" style="group" connectable="0" vertex="1" parent="AvlQFZVQ7szgCzw6vinH-283">
          <mxGeometry x="-10" width="90" height="80" as="geometry" />
        </mxCell>
        <mxCell id="AvlQFZVQ7szgCzw6vinH-287" value="" style="endArrow=none;html=1;rounded=0;" edge="1" parent="AvlQFZVQ7szgCzw6vinH-286">
          <mxGeometry width="50" height="50" relative="1" as="geometry">
            <mxPoint x="10" y="40" as="sourcePoint" />
            <mxPoint x="90" y="40" as="targetPoint" />
          </mxGeometry>
        </mxCell>
        <mxCell id="AvlQFZVQ7szgCzw6vinH-288" value="" style="endArrow=none;html=1;rounded=0;" edge="1" parent="AvlQFZVQ7szgCzw6vinH-286">
          <mxGeometry width="50" height="50" relative="1" as="geometry">
            <mxPoint x="50" y="80" as="sourcePoint" />
            <mxPoint x="50" as="targetPoint" />
          </mxGeometry>
        </mxCell>
        <mxCell id="AvlQFZVQ7szgCzw6vinH-289" value="20" style="text;html=1;align=center;verticalAlign=middle;resizable=0;points=[];autosize=1;strokeColor=none;fillColor=none;" vertex="1" parent="AvlQFZVQ7szgCzw6vinH-286">
          <mxGeometry x="5" y="10" width="40" height="30" as="geometry" />
        </mxCell>
        <mxCell id="AvlQFZVQ7szgCzw6vinH-290" value="20" style="text;html=1;align=center;verticalAlign=middle;resizable=0;points=[];autosize=1;strokeColor=none;fillColor=none;" vertex="1" parent="AvlQFZVQ7szgCzw6vinH-286">
          <mxGeometry x="5" y="40" width="40" height="30" as="geometry" />
        </mxCell>
        <mxCell id="AvlQFZVQ7szgCzw6vinH-291" value="&lt;div style=&quot;text-align: center;&quot;&gt;&lt;span style=&quot;background-color: initial; font-size: 10px; text-wrap: nowrap;&quot;&gt;&lt;u&gt;4&lt;/u&gt;&lt;/span&gt;&lt;/div&gt;" style="text;whiteSpace=wrap;html=1;" vertex="1" parent="1">
          <mxGeometry x="176.11" y="520" width="13.89" height="20" as="geometry" />
        </mxCell>
        <mxCell id="AvlQFZVQ7szgCzw6vinH-292" value="&lt;div style=&quot;text-align: center;&quot;&gt;&lt;span style=&quot;font-size: 10px; text-wrap: nowrap;&quot;&gt;&lt;u&gt;8&lt;/u&gt;&lt;/span&gt;&lt;/div&gt;" style="text;whiteSpace=wrap;html=1;" vertex="1" parent="1">
          <mxGeometry x="320.27" y="340" width="13.89" height="20" as="geometry" />
        </mxCell>
        <mxCell id="AvlQFZVQ7szgCzw6vinH-293" style="edgeStyle=orthogonalEdgeStyle;rounded=0;orthogonalLoop=1;jettySize=auto;html=1;exitX=1;exitY=0.5;exitDx=0;exitDy=0;entryX=0;entryY=0.5;entryDx=0;entryDy=0;" edge="1" parent="1" source="AvlQFZVQ7szgCzw6vinH-11" target="AvlQFZVQ7szgCzw6vinH-68">
          <mxGeometry relative="1" as="geometry" />
        </mxCell>
        <mxCell id="AvlQFZVQ7szgCzw6vinH-295" style="edgeStyle=orthogonalEdgeStyle;rounded=0;orthogonalLoop=1;jettySize=auto;html=1;exitX=1;exitY=0.5;exitDx=0;exitDy=0;entryX=0.5;entryY=1;entryDx=0;entryDy=0;" edge="1" parent="1" source="AvlQFZVQ7szgCzw6vinH-6" target="AvlQFZVQ7szgCzw6vinH-68">
          <mxGeometry relative="1" as="geometry" />
        </mxCell>
        <mxCell id="AvlQFZVQ7szgCzw6vinH-296" style="edgeStyle=orthogonalEdgeStyle;rounded=0;orthogonalLoop=1;jettySize=auto;html=1;exitX=1;exitY=0.5;exitDx=0;exitDy=0;" edge="1" parent="1" source="AvlQFZVQ7szgCzw6vinH-17" target="AvlQFZVQ7szgCzw6vinH-68">
          <mxGeometry relative="1" as="geometry" />
        </mxCell>
        <mxCell id="AvlQFZVQ7szgCzw6vinH-297" style="edgeStyle=orthogonalEdgeStyle;rounded=0;orthogonalLoop=1;jettySize=auto;html=1;exitX=1;exitY=0.5;exitDx=0;exitDy=0;entryX=0.5;entryY=0;entryDx=0;entryDy=0;" edge="1" parent="1" source="AvlQFZVQ7szgCzw6vinH-12" target="AvlQFZVQ7szgCzw6vinH-68">
          <mxGeometry relative="1" as="geometry" />
        </mxCell>
        <mxCell id="AvlQFZVQ7szgCzw6vinH-298" style="edgeStyle=orthogonalEdgeStyle;rounded=0;orthogonalLoop=1;jettySize=auto;html=1;exitX=1;exitY=0.5;exitDx=0;exitDy=0;entryX=0.5;entryY=0;entryDx=0;entryDy=0;" edge="1" parent="1" source="AvlQFZVQ7szgCzw6vinH-14" target="AvlQFZVQ7szgCzw6vinH-68">
          <mxGeometry relative="1" as="geometry" />
        </mxCell>
        <mxCell id="hKKmduJ7_X3WOTK02fLc-1" value="H= 5" style="text;html=1;align=center;verticalAlign=middle;resizable=0;points=[];autosize=1;strokeColor=none;fillColor=none;rotation=0;" vertex="1" parent="1">
          <mxGeometry x="165" y="53" width="50" height="30" as="geometry" />
        </mxCell>
        <mxCell id="drOBan0i8lxaKJVGKM7u-1" value="&lt;span style=&quot;color: rgb(0, 0, 0); font-family: Helvetica; font-size: 12px; font-style: normal; font-variant-ligatures: normal; font-variant-caps: normal; font-weight: 400; letter-spacing: normal; orphans: 2; text-align: center; text-indent: 0px; text-transform: none; widows: 2; word-spacing: 0px; -webkit-text-stroke-width: 0px; white-space: nowrap; background-color: rgb(251, 251, 251); text-decoration-thickness: initial; text-decoration-style: initial; text-decoration-color: initial; display: inline !important; float: none;&quot;&gt;H= 5&lt;/span&gt;" style="text;whiteSpace=wrap;html=1;" vertex="1" parent="1">
          <mxGeometry x="320.27" y="53" width="50" height="40" as="geometry" />
        </mxCell>
        <mxCell id="drOBan0i8lxaKJVGKM7u-2" value="H= 5" style="text;html=1;align=center;verticalAlign=middle;resizable=0;points=[];autosize=1;strokeColor=none;fillColor=none;rotation=0;" vertex="1" parent="1">
          <mxGeometry x="455" y="53" width="50" height="30" as="geometry" />
        </mxCell>
        <mxCell id="drOBan0i8lxaKJVGKM7u-3" value="H= 0" style="text;html=1;align=center;verticalAlign=middle;resizable=0;points=[];autosize=1;strokeColor=none;fillColor=none;rotation=0;" vertex="1" parent="1">
          <mxGeometry x="85" y="340" width="50" height="30" as="geometry" />
        </mxCell>
        <mxCell id="drOBan0i8lxaKJVGKM7u-4" value="H= 0" style="text;html=1;align=center;verticalAlign=middle;resizable=0;points=[];autosize=1;strokeColor=none;fillColor=none;rotation=0;" vertex="1" parent="1">
          <mxGeometry x="235" y="340" width="50" height="30" as="geometry" />
        </mxCell>
        <mxCell id="drOBan0i8lxaKJVGKM7u-5" value="H= 0" style="text;html=1;align=center;verticalAlign=middle;resizable=0;points=[];autosize=1;strokeColor=none;fillColor=none;rotation=0;" vertex="1" parent="1">
          <mxGeometry x="381.11" y="340" width="50" height="30" as="geometry" />
        </mxCell>
        <mxCell id="drOBan0i8lxaKJVGKM7u-6" value="H= 10" style="text;html=1;align=center;verticalAlign=middle;resizable=0;points=[];autosize=1;strokeColor=none;fillColor=none;rotation=0;" vertex="1" parent="1">
          <mxGeometry x="81.11000000000001" y="515" width="60" height="30" as="geometry" />
        </mxCell>
        <mxCell id="drOBan0i8lxaKJVGKM7u-7" value="H= 10" style="text;html=1;align=center;verticalAlign=middle;resizable=0;points=[];autosize=1;strokeColor=none;fillColor=none;rotation=0;" vertex="1" parent="1">
          <mxGeometry x="225" y="515" width="60" height="30" as="geometry" />
        </mxCell>
        <mxCell id="drOBan0i8lxaKJVGKM7u-8" value="H= 10" style="text;html=1;align=center;verticalAlign=middle;resizable=0;points=[];autosize=1;strokeColor=none;fillColor=none;rotation=0;" vertex="1" parent="1">
          <mxGeometry x="375" y="515" width="60" height="30" as="geometry" />
        </mxCell>
        <mxCell id="drOBan0i8lxaKJVGKM7u-9" value="H= 8" style="text;html=1;align=center;verticalAlign=middle;resizable=0;points=[];autosize=1;strokeColor=none;fillColor=none;rotation=0;" vertex="1" parent="1">
          <mxGeometry x="86.11000000000001" y="695" width="50" height="30" as="geometry" />
        </mxCell>
        <mxCell id="drOBan0i8lxaKJVGKM7u-10" value="H= 8" style="text;html=1;align=center;verticalAlign=middle;resizable=0;points=[];autosize=1;strokeColor=none;fillColor=none;rotation=0;" vertex="1" parent="1">
          <mxGeometry x="225" y="695" width="50" height="30" as="geometry" />
        </mxCell>
        <mxCell id="drOBan0i8lxaKJVGKM7u-11" value="H= 8" style="text;html=1;align=center;verticalAlign=middle;resizable=0;points=[];autosize=1;strokeColor=none;fillColor=none;rotation=0;" vertex="1" parent="1">
          <mxGeometry x="375" y="695" width="50" height="30" as="geometry" />
        </mxCell>
        <mxCell id="drOBan0i8lxaKJVGKM7u-12" value="H= 5" style="text;html=1;align=center;verticalAlign=middle;resizable=0;points=[];autosize=1;strokeColor=none;fillColor=none;rotation=0;" vertex="1" parent="1">
          <mxGeometry x="85.00000000000001" y="885" width="50" height="30" as="geometry" />
        </mxCell>
        <mxCell id="drOBan0i8lxaKJVGKM7u-13" value="H= 5" style="text;html=1;align=center;verticalAlign=middle;resizable=0;points=[];autosize=1;strokeColor=none;fillColor=none;rotation=0;" vertex="1" parent="1">
          <mxGeometry x="220" y="885" width="50" height="30" as="geometry" />
        </mxCell>
        <mxCell id="drOBan0i8lxaKJVGKM7u-14" value="H= 5" style="text;html=1;align=center;verticalAlign=middle;resizable=0;points=[];autosize=1;strokeColor=none;fillColor=none;rotation=0;glass=1;" vertex="1" parent="1">
          <mxGeometry x="370" y="890" width="50" height="30" as="geometry" />
        </mxCell>
        <mxCell id="drOBan0i8lxaKJVGKM7u-15" value="H= 0" style="text;html=1;align=center;verticalAlign=middle;resizable=0;points=[];autosize=1;strokeColor=none;fillColor=none;rotation=0;" vertex="1" parent="1">
          <mxGeometry x="777" y="465" width="50" height="30" as="geometry" />
        </mxCell>
        <mxCell id="drOBan0i8lxaKJVGKM7u-16" value="H= 0" style="text;html=1;align=center;verticalAlign=middle;resizable=0;points=[];autosize=1;strokeColor=none;fillColor=none;rotation=0;" vertex="1" parent="1">
          <mxGeometry x="-65" y="465" width="50" height="30" as="geometry" />
        </mxCell>
      </root>
    </mxGraphModel>
  </diagram>
</mxfile>
